<svg width="24" height="24" viewBox="0 0 24 24" fill="none" xmlns="http://www.w3.org/2000/svg">
<path d="M12 17.25C14.8995 17.25 17.25 14.8995 17.25 12C17.25 9.10051 14.8995 6.75 12 6.75C9.10051 6.75 6.75 9.10051 6.75 12C6.75 14.8995 9.10051 17.25 12 17.25Z" stroke="#5CB94C" stroke-width="1.5" stroke-linecap="round" stroke-linejoin="round"/>
<path d="M20.2503 11.2498L21.2165 9.80035C21.2795 9.70697 21.3212 9.60088 21.3385 9.4896C21.3559 9.37832 21.3485 9.26458 21.3169 9.15647C21.1346 8.55619 20.8944 7.97507 20.5996 7.42132C20.5456 7.32274 20.4705 7.23731 20.3796 7.17111C20.2888 7.10491 20.1845 7.05958 20.0741 7.03837L18.3643 6.69638L17.3036 5.63573L16.9616 3.92586C16.9404 3.81548 16.8951 3.71114 16.8289 3.62029C16.7627 3.52945 16.6772 3.45434 16.5787 3.40034C16.0249 3.10556 15.4437 2.86534 14.8434 2.68307C14.7353 2.65152 14.6216 2.64415 14.5103 2.6615C14.399 2.67885 14.2929 2.72048 14.1996 2.78345L12.7503 3.74966H11.2503L9.80093 2.78345C9.70756 2.72048 9.60146 2.67885 9.49018 2.6615C9.3789 2.64415 9.26517 2.65152 9.15706 2.68307C8.55678 2.86534 7.97564 3.10556 7.42186 3.40033C7.32327 3.45434 7.23783 3.52945 7.17162 3.62029C7.10542 3.71114 7.06009 3.81549 7.03887 3.92588L6.69697 5.63564L5.63623 6.69637L3.92646 7.03828C3.81607 7.05949 3.71173 7.10482 3.62088 7.17102C3.53004 7.23722 3.45493 7.32266 3.40092 7.42124C3.1061 7.97502 2.86585 8.55617 2.68355 9.15647C2.652 9.26459 2.64464 9.37832 2.66199 9.48959C2.67934 9.60087 2.72098 9.70696 2.78395 9.80034L3.75016 11.2497V12.7497L2.78394 14.199C2.72098 14.2924 2.67935 14.3984 2.662 14.5097C2.64465 14.621 2.65201 14.7347 2.68356 14.8428C2.86581 15.4431 3.10603 16.0243 3.40082 16.5781C3.45483 16.6767 3.52994 16.7621 3.62078 16.8283C3.71162 16.8945 3.81596 16.9398 3.92635 16.961L5.63623 17.303L6.69687 18.3637L7.03879 20.0735C7.06 20.1839 7.10532 20.2883 7.17152 20.3791C7.23772 20.47 7.32316 20.5451 7.42174 20.5991C7.97549 20.8939 8.55662 21.1341 9.15691 21.3164C9.26501 21.3479 9.37874 21.3553 9.49001 21.3379C9.60127 21.3206 9.70736 21.2789 9.80073 21.216L11.2502 20.2498H12.7502L14.1996 21.216C14.2929 21.279 14.399 21.3206 14.5103 21.338C14.6216 21.3553 14.7353 21.348 14.8434 21.3164C15.4437 21.1342 16.0248 20.894 16.5786 20.5992C16.6772 20.5452 16.7626 20.4701 16.8288 20.3792C16.895 20.2884 16.9403 20.184 16.9615 20.0737L17.3035 18.3638L18.3642 17.303L20.074 16.9611C20.1844 16.9399 20.2888 16.8946 20.3796 16.8284C20.4705 16.7622 20.5456 16.6767 20.5996 16.5782C20.8944 16.0244 21.1346 15.4433 21.3169 14.843C21.3485 14.7349 21.3559 14.6212 21.3385 14.5099C21.3211 14.3986 21.2795 14.2925 21.2165 14.1992L20.2503 12.7498V11.2498Z" stroke="#5CB94C" stroke-width="1.5" stroke-linecap="round" stroke-linejoin="round"/>
</svg>
