<!-- Generated by IcoMoon.io -->
<svg version="1.1" xmlns="http://www.w3.org/2000/svg" width="32" height="32" viewBox="0 0 32 32">
<title>Star-1</title>
<path d="M14.868 1.821c0.522-0.839 1.743-0.839 2.265 0l3.942 6.34c0.184 0.295 0.475 0.507 0.813 0.59l7.248 1.79c0.959 0.237 1.337 1.398 0.7 2.154l-4.812 5.708c-0.224 0.266-0.335 0.609-0.31 0.955l0.537 7.446c0.071 0.985-0.917 1.703-1.832 1.331l-6.916-2.812c-0.322-0.131-0.683-0.131-1.005 0l-6.916 2.812c-0.915 0.372-1.903-0.346-1.832-1.331l0.537-7.446c0.025-0.347-0.086-0.69-0.31-0.955l-4.812-5.708c-0.637-0.755-0.259-1.917 0.7-2.154l7.248-1.79c0.338-0.083 0.629-0.295 0.813-0.59l3.942-6.34z"></path>
</svg>
