<svg width="32" height="32" viewBox="0 0 32 32" fill="none" xmlns="http://www.w3.org/2000/svg">
<path d="M27.6959 18.6956C25.713 19.1504 23.6471 19.0942 21.6919 18.532C19.7367 17.9699 17.9563 16.9203 16.5178 15.4818C15.0793 14.0433 14.0297 12.2629 13.4676 10.3077C12.9055 8.35256 12.8492 6.28663 13.304 4.30375L13.3039 4.30371C11.2163 4.78527 9.29565 5.81687 7.7414 7.2914C6.18714 8.76594 5.05593 10.6296 4.46522 12.689C3.8745 14.7484 3.84582 16.9283 4.38214 19.0025C4.91846 21.0767 6.00024 22.9695 7.51515 24.4845C9.03007 25.9994 10.9229 27.0812 12.9971 27.6175C15.0713 28.1538 17.2512 28.1251 19.3106 27.5344C21.37 26.9437 23.2337 25.8125 24.7082 24.2583C26.1827 22.704 27.2143 20.7834 27.6959 18.6958L27.6959 18.6956Z" stroke="#767676" stroke-width="1.5" stroke-linecap="round" stroke-linejoin="round"/>
</svg>
