<svg width="24" height="24" viewBox="0 0 24 24" fill="none" xmlns="http://www.w3.org/2000/svg">
<path d="M8.81795 17.303C7.75729 20.4849 3.51465 20.4849 3.51465 20.4849C3.51465 20.4849 3.51465 16.2423 6.69663 15.1816" stroke="#5CB94C" stroke-width="1.5" stroke-linecap="round" stroke-linejoin="round"/>
<path d="M18.3639 9.87839L12 16.2424L7.75732 11.9997L14.1213 5.63575C16.531 3.22599 18.9408 3.24949 19.9685 3.40283C20.1267 3.42642 20.2732 3.50021 20.3863 3.61333C20.4995 3.72646 20.5733 3.87293 20.5969 4.03117C20.7502 5.05887 20.7737 7.46863 18.3639 9.87839Z" stroke="#5CB94C" stroke-width="1.5" stroke-linecap="round" stroke-linejoin="round"/>
<path d="M17.3033 10.9395V16.9928C17.3033 17.0912 17.2839 17.1888 17.2462 17.2798C17.2085 17.3708 17.1533 17.4534 17.0836 17.5231L14.0516 20.5551C13.9556 20.6511 13.8354 20.7193 13.7037 20.7523C13.572 20.7853 13.4338 20.782 13.3039 20.7426C13.174 20.7033 13.0572 20.6294 12.9659 20.5289C12.8747 20.4284 12.8124 20.305 12.7858 20.1719L12 16.2428" stroke="#5CB94C" stroke-width="1.5" stroke-linecap="round" stroke-linejoin="round"/>
<path d="M13.0604 6.69629H7.00714C6.90865 6.69629 6.81112 6.71569 6.72013 6.75338C6.62913 6.79107 6.54645 6.84631 6.47681 6.91596L3.44477 9.948C3.34878 10.044 3.28064 10.1642 3.24762 10.2959C3.2146 10.4276 3.21794 10.5657 3.25728 10.6957C3.29662 10.8256 3.37048 10.9424 3.47099 11.0336C3.57151 11.1249 3.6949 11.1871 3.82801 11.2138L7.75714 11.9996" stroke="#5CB94C" stroke-width="1.5" stroke-linecap="round" stroke-linejoin="round"/>
</svg>
