<svg width="32" height="32" viewBox="0 0 32 32" fill="none" xmlns="http://www.w3.org/2000/svg">
<path d="M11.7576 23.0706C10.3434 27.3133 4.68652 27.3133 4.68652 27.3133C4.68652 27.3133 4.68652 21.6564 8.92916 20.2422" stroke="#5CB94C" stroke-width="1.5" stroke-linecap="round" stroke-linejoin="round"/>
<path d="M24.4854 13.1715L16.0001 21.6568L10.3433 15.9999L18.8285 7.51466C22.0416 4.30164 25.2546 4.33298 26.6248 4.53743C26.8358 4.56888 27.0311 4.66727 27.182 4.8181C27.3328 4.96894 27.4312 5.16423 27.4626 5.37521C27.6671 6.74548 27.6984 9.9585 24.4854 13.1715Z" stroke="#5CB94C" stroke-width="1.5" stroke-linecap="round" stroke-linejoin="round"/>
<path d="M23.0711 14.5859V22.657C23.0711 22.7883 23.0452 22.9184 22.9949 23.0397C22.9447 23.161 22.871 23.2713 22.7782 23.3641L18.7355 27.4068C18.6075 27.5348 18.4471 27.6257 18.2716 27.6697C18.096 27.7137 17.9118 27.7093 17.7386 27.6568C17.5653 27.6044 17.4096 27.5059 17.2879 27.3719C17.1663 27.2378 17.0833 27.0733 17.0478 26.8958L16 21.657" stroke="#5CB94C" stroke-width="1.5" stroke-linecap="round" stroke-linejoin="round"/>
<path d="M17.4141 8.92871H9.34301C9.21169 8.92871 9.08166 8.95458 8.96033 9.00483C8.839 9.05509 8.72876 9.12874 8.63591 9.2216L4.59319 13.2643C4.4652 13.3923 4.37435 13.5526 4.33033 13.7282C4.2863 13.9038 4.29075 14.088 4.3432 14.2612C4.39565 14.4344 4.49414 14.5902 4.62815 14.7119C4.76217 14.8335 4.92669 14.9165 5.10418 14.952L10.343 15.9998" stroke="#5CB94C" stroke-width="1.5" stroke-linecap="round" stroke-linejoin="round"/>
</svg>
